<svg width="22" height="22" viewBox="0 0 22 22" fill="none" xmlns="http://www.w3.org/2000/svg">
<rect width="22" height="22" fill="#E33F52"/>
<path d="M14.4839 8.84185C14.3998 8.76418 14.2819 8.72888 14.1664 8.74693C14.0508 8.76491 13.9509 8.83393 13.8972 8.93298C13.7127 9.27374 13.4783 9.58689 13.2025 9.86371C13.23 9.66374 13.2438 9.46257 13.2438 9.26087C13.2438 8.87385 13.1893 8.47557 13.0816 8.07697C12.7276 6.76772 11.7992 5.66051 10.5347 5.03925C10.4246 4.98518 10.2934 4.98708 10.1851 5.04431C10.0768 5.10157 10.0058 5.20655 9.99613 5.32397C9.89755 6.51375 9.25282 7.59619 8.22627 8.29445C8.21268 8.30375 8.1992 8.31317 8.18571 8.32255C8.15777 8.34198 8.13144 8.36035 8.10683 8.37577C8.10298 8.37821 8.09916 8.3807 8.09541 8.38325C7.44979 8.82263 6.91707 9.40834 6.55479 10.0772C6.18665 10.7576 6 11.4877 6 12.2472C6 12.6341 6.05457 13.0324 6.16219 13.431C6.73017 15.5324 8.71961 17 11.0001 17C13.7571 17 16 14.8679 16 12.2472C16 10.9548 15.4616 9.74546 14.4839 8.84185Z" fill="#383838"/>
</svg>
